<svg xmlns="http://www.w3.org/2000/svg" viewBox="0 0 50 50"><defs><style>.cls-1{fill:#cd2264}</style></defs><title>Amazon-Simple-Notification-Service-SNS_Topic_light-bg</title><g id="Working"><path d="M47.5,17.09H2.5a1,1,0,0,1-1-1V5.78a1,1,0,0,1,1-1h45a1,1,0,0,1,1,1V16.09A1,1,0,0,1,47.5,17.09Zm-44-2h43V6.78H3.5Z" class="cls-1"/><path d="M47.5,31.16h-2v-2h1v-1h2v2A1,1,0,0,1,47.5,31.16Z" class="cls-1"/><path d="M43.64,31.16H39.91v-2h3.73Zm-5.59,0H34.32v-2h3.73Zm-5.59,0H28.73v-2h3.73Zm-5.6,0H23.14v-2h3.72Zm-5.59,0H17.55v-2h3.72Zm-5.59,0H12v-2h3.72Zm-5.59,0H6.36v-2h3.73Z" class="cls-1"/><path d="M4.5,31.16h-2a1,1,0,0,1-1-1v-2h2v1h1Z" class="cls-1"/><rect width="2" height="3.16" x="1.5" y="23.42" class="cls-1"/><path d="M3.5,21.84h-2v-2a1,1,0,0,1,1-1h2v2h-1Z" class="cls-1"/><path d="M43.64,20.84H39.91v-2h3.73Zm-5.6,0H34.32v-2H38Zm-5.59,0H28.73v-2h3.72Zm-5.59,0H23.14v-2h3.72Zm-5.59,0H17.54v-2h3.73Zm-5.59,0H12v-2h3.73Zm-5.59,0H6.36v-2h3.73Z" class="cls-1"/><path d="M48.5,21.84h-2v-1h-1v-2h2a1,1,0,0,1,1,1Z" class="cls-1"/><rect width="2" height="3.16" x="46.5" y="23.42" class="cls-1"/><path d="M47.5,45.22h-2v-2h1v-1h2v2A1,1,0,0,1,47.5,45.22Z" class="cls-1"/><path d="M43.64,45.22H39.91v-2h3.73Zm-5.59,0H34.32v-2h3.73Zm-5.59,0H28.73v-2h3.73Zm-5.6,0H23.14v-2h3.72Zm-5.59,0H17.55v-2h3.72Zm-5.59,0H12v-2h3.72Zm-5.59,0H6.36v-2h3.73Z" class="cls-1"/><path d="M4.5,45.22h-2a1,1,0,0,1-1-1v-2h2v1h1Z" class="cls-1"/><rect width="2" height="3.16" x="1.5" y="37.48" class="cls-1"/><path d="M3.5,35.91h-2v-2a1,1,0,0,1,1-1h2v2h-1Z" class="cls-1"/><path d="M43.64,34.91H39.91v-2h3.73Zm-5.6,0H34.32v-2H38Zm-5.59,0H28.73v-2h3.72Zm-5.59,0H23.14v-2h3.72Zm-5.59,0H17.54v-2h3.73Zm-5.59,0H12v-2h3.73Zm-5.59,0H6.36v-2h3.73Z" class="cls-1"/><path d="M48.5,35.91h-2v-1h-1v-2h2a1,1,0,0,1,1,1Z" class="cls-1"/><rect width="2" height="3.16" x="46.5" y="37.48" class="cls-1"/></g></svg>
