<svg xmlns="http://www.w3.org/2000/svg" viewBox="0 0 50 50"><defs><style>.cls-1{fill:#d86613}</style></defs><title>Amazon-Elastic-Container-Service_Container2_light-bg</title><g id="Working"><path d="M47.5,39.56H2.5a1,1,0,0,1-1-1V10.44a1,1,0,0,1,1-1h45a1,1,0,0,1,1,1V38.56A1,1,0,0,1,47.5,39.56Zm-44-2h43V11.44H3.5Z" class="cls-1"/><rect width="2" height="20.63" x="6.19" y="14.19" class="cls-1"/><rect width="2" height="20.63" x="11.81" y="14.19" class="cls-1"/><rect width="2" height="20.63" x="36.19" y="14.19" class="cls-1"/><rect width="2" height="20.63" x="41.81" y="14.19" class="cls-1"/><path d="M30.87,32.06H19.13a1.69,1.69,0,0,1-1.69-1.69V18.63a1.69,1.69,0,0,1,1.69-1.69H30.87a1.69,1.69,0,0,1,1.69,1.69V30.37A1.69,1.69,0,0,1,30.87,32.06Zm-11.43-2H30.56V18.94H19.44Z" class="cls-1"/><rect width="2" height="2.81" x="18.38" y="15.13" class="cls-1"/><rect width="2" height="2.81" x="22.13" y="15.13" class="cls-1"/><rect width="2" height="2.81" x="25.88" y="15.13" class="cls-1"/><rect width="2" height="2.81" x="29.63" y="15.13" class="cls-1"/><rect width="2" height="2.81" x="18.38" y="31.06" class="cls-1"/><rect width="2" height="2.81" x="22.13" y="31.06" class="cls-1"/><rect width="2" height="2.81" x="25.88" y="31.06" class="cls-1"/><rect width="2" height="2.81" x="29.63" y="31.06" class="cls-1"/><rect width="2.81" height="2" x="15.63" y="17.88" class="cls-1"/><rect width="2.81" height="2" x="15.63" y="21.63" class="cls-1"/><rect width="2.81" height="2" x="15.63" y="25.38" class="cls-1"/><rect width="2.81" height="2" x="15.63" y="29.13" class="cls-1"/><rect width="2.81" height="2" x="31.56" y="17.88" class="cls-1"/><rect width="2.81" height="2" x="31.56" y="21.63" class="cls-1"/><rect width="2.81" height="2" x="31.56" y="25.38" class="cls-1"/><rect width="2.81" height="2" x="31.56" y="29.13" class="cls-1"/></g></svg>
