<svg xmlns="http://www.w3.org/2000/svg" viewBox="0 0 50 50"><defs><style>.cls-1{fill:#cd2264}</style></defs><title>AWS-Systems-Manager_Patch-Manager_light-bg</title><g id="Reference"><polygon points="5.54 29.49 1.05 25 7.38 18.67 8.79 20.08 3.88 25 6.96 28.08 5.54 29.49" class="cls-1"/><polygon points="25 48.95 18.67 42.62 20.08 41.2 25 46.12 28.08 43.04 29.5 44.46 25 48.95" class="cls-1"/><polygon points="42.62 31.33 41.21 29.92 46.12 25 43.04 21.92 44.46 20.51 48.95 25 42.62 31.33" class="cls-1"/><polygon points="29.92 8.79 25 3.88 21.92 6.96 20.5 5.54 25 1.05 31.33 7.38 29.92 8.79" class="cls-1"/><rect width="14.06" height="2" x="10.94" y="8.06" class="cls-1"/><rect width="14.06" height="2" x="7.19" y="11.81" class="cls-1"/><rect width="14.06" height="2" x="3.44" y="15.56" class="cls-1"/><rect width="2" height="14.06" x="8.06" y="25" class="cls-1"/><rect width="2" height="14.06" x="11.81" y="28.75" class="cls-1"/><rect width="2" height="14.06" x="15.56" y="32.5" class="cls-1"/><rect width="2" height="14.06" x="39.94" y="10.94" class="cls-1"/><rect width="2" height="14.06" x="36.19" y="7.19" class="cls-1"/><rect width="2" height="14.06" x="32.44" y="3.44" class="cls-1"/><rect width="14.06" height="2" x="31.56" y="32.44" class="cls-1"/><rect width="14.06" height="2" x="27.81" y="36.19" class="cls-1"/><rect width="14.06" height="2" x="24.06" y="39.94" class="cls-1"/></g></svg>
