<svg xmlns="http://www.w3.org/2000/svg" xmlns:xlink="http://www.w3.org/1999/xlink" width="75" height="75" version="1.1" viewBox="0 0 75 75"><title>EFS-Standard_light-bg</title><desc>Created with Sketch.</desc><g id="EFS-Standard_light-bg" fill="none" fill-rule="evenodd" stroke="none" stroke-width="1"><g id="Group-17"><polygon id="Fill-1" fill="#3F8624" points="0 75 75 75 75 0 0 0"/><g id="Group-16" fill="#FFF" transform="translate(11.000000, 11.000000)"><path id="Fill-2" d="M41,30.3691 L41,18.6341 L49,14.8451 L49,26.1581 L41,30.3691 Z M31,48.7601 L31,37.1141 L39,33.5331 L39,44.7601 L31,48.7601 Z M21,33.6731 L29,37.4621 L29,48.9841 L21,44.7741 L21,33.6731 Z M10,14.7461 L18,18.5341 L18,30.1991 L10,26.1991 L10,14.7461 Z M18.839,9.3241 L27.119,13.4151 L19.274,16.9261 L11.443,13.2171 L18.839,9.3241 Z M29,14.7651 L29,26.1781 L20,30.9141 L20,18.7931 L29,14.7651 Z M39,30.4261 L31,26.4271 L31,15.1181 L39,18.6981 L39,30.4261 Z M29.616,35.5421 L22.188,32.0221 L29.755,28.0401 L37.606,31.9661 L29.616,35.5421 Z M40.242,9.4231 L47.601,13.2961 L39.936,16.9261 L32.128,13.4321 L40.242,9.4231 Z M50.466,12.5441 L40.723,7.4161 C40.439,7.2651 40.103,7.2621 39.813,7.4041 L29.59,12.4551 L29.61,12.4141 L19.268,7.3061 C18.981,7.1631 18.643,7.1681 18.359,7.3171 L8.534,12.4881 C8.206,12.6611 8,13.0021 8,13.3731 L8,26.8171 C8,27.1961 8.214,27.5421 8.553,27.7121 L18.895,32.8831 L19,32.6731 L19,45.3781 C19,45.7491 19.206,46.0901 19.534,46.2631 L29.277,51.3901 C29.423,51.4681 29.583,51.5061 29.743,51.5061 C29.896,51.5061 30.05,51.4711 30.19,51.4001 L30.993,50.9991 L31,50.9991 L31,50.9961 L40.447,46.2721 C40.786,46.1021 41,45.7571 41,45.3781 L41,32.6291 L50.466,27.6461 C50.794,27.4731 51,27.1331 51,26.7621 L51,13.4291 C51,13.0571 50.794,12.7171 50.466,12.5441 L50.466,12.5441 Z"/><polygon id="Fill-4" points="17.189 4.246 11.539 .949 10.531 2.676 16.181 5.973"/><polygon id="Fill-6" points="12.568 6.587 7.281 3.663 6.314 5.413 11.6 8.337"/><polygon id="Fill-8" points="8.413 10.152 2.174 6.562 1.177 8.297 7.416 11.886"/><polygon id="Fill-10" points="5.477 17.632 6.469 15.896 3.585 14.247 2.593 15.984"/><polygon id="Fill-12" points="3.357 29.796 11.357 33.983 12.285 32.211 4.285 28.025"/><polygon id="Fill-14" points="6.787 23.427 1.615 20.505 .632 22.247 5.804 25.169"/></g></g></g></svg>
