<svg xmlns="http://www.w3.org/2000/svg" xmlns:xlink="http://www.w3.org/1999/xlink" width="75" height="75" version="1.1" viewBox="0 0 75 75"><title>EFS-Standard_primary</title><desc>Created with Sketch.</desc><defs><linearGradient id="linearGradient-1" x1="-20.711%" x2="120.711%" y1="120.711%" y2="-20.711%"><stop offset="0%" stop-color="#1A660E"/><stop offset="100%" stop-color="#6BAE3D"/></linearGradient></defs><g id="EFS-Standard_primary" fill="none" fill-rule="evenodd" stroke="none" stroke-width="1"><g id="Group-18"><polygon id="Fill-1" fill="url(#linearGradient-1)" points="0 75 75 75 75 0 0 0"/><g id="Group-17" fill="#FFF" transform="translate(11.000000, 11.000000)"><path id="Fill-3" d="M41,30.3491 L41,18.6151 L49,14.8251 L49,26.1391 L41,30.3491 Z M31,48.7401 L31,37.0931 L39,33.5131 L39,44.7401 L31,48.7401 Z M21,33.6531 L29,37.4421 L29,48.9651 L21,44.7541 L21,33.6531 Z M10,14.7261 L18,18.5161 L18,30.1801 L10,26.1801 L10,14.7261 Z M18.839,9.3051 L27.119,13.3951 L19.274,16.9061 L11.444,13.1971 L18.839,9.3051 Z M29,14.7441 L29,26.1581 L20,30.8941 L20,18.7721 L29,14.7441 Z M39,30.4061 L31,26.4071 L31,15.0981 L39,18.6781 L39,30.4061 Z M29.616,35.5211 L22.188,32.0031 L29.755,28.0201 L37.606,31.9461 L29.616,35.5211 Z M40.242,9.4031 L47.6,13.2751 L39.936,16.9061 L32.128,13.4121 L40.242,9.4031 Z M50.466,12.5241 L40.723,7.3951 C40.439,7.2471 40.101,7.2421 39.813,7.3841 L29.591,12.4331 L29.61,12.3941 L19.268,7.2861 C18.981,7.1431 18.643,7.1481 18.359,7.2971 L8.534,12.4681 C8.206,12.6411 8,12.9821 8,13.3531 L8,26.7981 C8,27.1771 8.214,27.5231 8.553,27.6921 L18.895,32.8631 L19,32.6531 L19,45.3581 C19,45.7291 19.206,46.0701 19.534,46.2431 L29.277,51.3711 C29.423,51.4481 29.583,51.4861 29.743,51.4861 C29.896,51.4861 30.05,51.4511 30.19,51.3811 L30.952,51.0001 L31,51.0001 L31,50.9761 L40.447,46.2521 C40.786,46.0831 41,45.7371 41,45.3581 L41,32.6091 L50.466,27.6271 C50.794,27.4541 51,27.1131 51,26.7421 L51,13.4091 C51,13.0371 50.794,12.6971 50.466,12.5241 L50.466,12.5241 Z"/><polygon id="Fill-5" points="17.189 4.226 11.539 .93 10.531 2.657 16.181 5.954"/><polygon id="Fill-7" points="12.568 6.567 7.281 3.643 6.314 5.393 11.6 8.317"/><polygon id="Fill-9" points="8.413 10.133 2.174 6.543 1.177 8.276 7.416 11.866"/><polygon id="Fill-11" points="5.477 17.612 6.469 15.876 3.585 14.228 2.593 15.964"/><polygon id="Fill-13" points="3.357 29.777 11.357 33.963 12.284 32.191 4.284 28.005"/><polygon id="Fill-15" points="6.787 23.407 1.615 20.485 .632 22.226 5.804 25.148"/></g></g></g></svg>
