<svg xmlns="http://www.w3.org/2000/svg" xmlns:xlink="http://www.w3.org/1999/xlink" id="Icons" width="64" height="64" x="0" y="0" enable-background="new 0 0 64 64" version="1.1" viewBox="0 0 64 64" xml:space="preserve"><path fill="#EC008C" d="M1,32c0,17.121,13.879,31,31,31s31-13.879,31-31S49.121,1,32,1S1,14.879,1,32"/><path fill="#F05A28" d="M1,32c0,17.121,13.879,31,31,31s31-13.879,31-31S49.121,1,32,1S1,14.879,1,32" opacity=".4"/><path fill="#FFF" d="M24,15l0.07,34L51,32L24,15z M27,20.44L45.38,32L27,43.57V20.44z"/><path fill="#FFF" d="M18,19v26l22-13L18,19z M21,24.26L34.1,32L21,39.74V24.26z"/></svg>
