<svg xmlns="http://www.w3.org/2000/svg" xmlns:xlink="http://www.w3.org/1999/xlink" id="Layer_1" width="50" height="50" x="0" y="0" enable-background="new 0 0 50 50" version="1.1" viewBox="0 0 50 50" xml:space="preserve"><rect width="20.1" height="4.5" x="11.5" y="39.1" fill="#7A7A7A"/><polygon fill="#7A7A7A" points="34.7 28.3 34.7 45.9 9 45.9 9 28.3 4.9 28.3 4.9 50 4.9 50 8.9 50 34.8 50 38.1 50 38.7 50 38.7 28.3"/><rect width="20.1" height="4.5" x="11.9" y="32.9" fill="#7A7A7A" transform="matrix(0.9973 7.275449e-002 -7.275449e-002 0.9973 2.6117 -1.5033)"/><rect width="20.1" height="4.5" x="11.9" y="32.9" fill="#FF8C00" opacity=".1" transform="matrix(0.9973 7.275449e-002 -7.275449e-002 0.9973 2.6117 -1.5033)"/><rect width="20.1" height="4.5" x="13.2" y="25.7" fill="#7A7A7A" transform="matrix(0.9675 0.253 -0.253 0.9675 7.8182 -4.9641)"/><rect width="20.1" height="4.5" x="13.2" y="25.7" fill="#FF8C00" opacity=".35" transform="matrix(0.9675 0.253 -0.253 0.9675 7.8182 -4.9641)"/><rect width="20.1" height="4.5" x="16.2" y="18.1" fill="#7A7A7A" transform="matrix(0.8625 0.5061 -0.5061 0.8625 13.9059 -10.4579)"/><rect width="20.1" height="4.5" x="16.2" y="18.1" fill="#FF8C00" opacity=".75" transform="matrix(0.8625 0.5061 -0.5061 0.8625 13.9059 -10.4579)"/><rect width="20.1" height="4.5" x="22.7" y="11.4" fill="#FF8C00" transform="matrix(0.5617 0.8273 -0.8273 0.5617 25.6371 -21.0869)"/><rect width="20.1" height="4.5" x="31.2" y="8" fill="#FF8C00" transform="matrix(0.1622 0.9868 -0.9868 0.1622 44.7019 -32.1242)"/><rect width="20.1" height="4.5" x="31.2" y="8" fill="#DD5900" opacity=".4" transform="matrix(0.1622 0.9868 -0.9868 0.1622 44.7019 -32.1242)"/></svg>